<svg version="1.2" xmlns="http://www.w3.org/2000/svg" viewBox="0 0 440 100" width="440" height="100">
	<style>
		.s0 { fill: #0053ac } 
		.s1 { fill: #2fccff } 
	</style>
	<path id="PARSIMONT" class="s0" aria-label="PARSIMONT"  d="m22.6 72h-5.8v-44.7h16.3q4.1 0 7.3 1.5 3.3 1.5 5.2 4.5 1.9 2.9 1.9 7.3 0 4.5-1.9 7.5-1.9 2.9-5.2 4.4-3.2 1.5-7.3 1.5h-10.5zm0-39.7v16.7h9.8q4.3 0 6.6-2.3 2.5-2.2 2.5-6 0-3.9-2.5-6.1-2.3-2.3-6.6-2.3zm65 39.7h-6.2l-4-13.4h-15.4l-4 13.4h-6.2l14.2-44.7h7.5zm-17.9-39.4l-6.2 21h12.4zm41.8 21h-9.6v18.4h-5.9v-44.8h15.7q6.5 0 10.4 3 3.9 3.1 3.9 9.3 0 3.9-1.7 6.6-1.8 2.6-5.7 4.6 2.3 0.9 3.6 2.1 1.3 1.1 1.9 3.1 0.5 1.9 0.7 5.2l0.2 3.3q0.2 1.6 0.5 3.3 0.4 1.8 1.8 2.8v1.5h-6.6q-0.7-1.5-1.2-3.4-0.4-1.9-0.4-4.1v-2.8q0-4-1.8-6-1.8-2.1-5.8-2.1zm-0.9-21.3h-8.7v16.2h8.7q4.3 0 6.8-1.8 2.5-1.9 2.5-6.6 0-4.1-2.5-6-2.4-1.8-6.8-1.8zm53.7 7v0.9h-5.7q-0.1-3.9-2.4-6.4-2.3-2.5-7-2.5-4.6 0-7.1 2-2.3 2.1-2.3 5.1 0 5.3 6.1 6.8l9.1 2.1q5.3 1.2 7.9 4.4 2.7 3.2 2.7 7.5 0 4.5-2 7.6-2 3.1-5.6 4.7-3.5 1.6-8.2 1.6-8.4 0-12.8-4.1-4.3-4.1-4.5-11.3h5.8q0.1 4.5 3 7.3 3 2.8 8.6 2.8 5 0 7.3-2.2 2.4-2.1 2.4-5.5 0-3-1.7-4.8-1.6-1.7-4.9-2.5l-9.3-2.1q-4.8-1.2-7.4-4.1-2.5-3-2.5-7.7 0-3.7 1.9-6.5 1.9-2.9 5.4-4.5 3.5-1.7 8.3-1.7 4.6 0 8 1.7 3.4 1.8 5.2 4.8 1.7 2.9 1.7 6.6zm37 32.7h-25v-5h9.5v-34.8h-9.5v-5h25v5h-9.5v34.8h9.5zm30.1-12.8h-5l-8.2-22.6v35.4h-5.1v-44.8h6.7l9.1 25.8 9-25.8h6.6v44.8h-5.1v-35.5zm36.5-32.9q8.2 0 12.8 6.2 4.6 6.1 4.6 17.3 0 11.1-4.6 17.2-4.6 6.2-12.8 6.2-8.3 0-12.9-6.2-4.5-6.1-4.5-17.2 0-11.2 4.5-17.3 4.6-6.2 12.9-6.2zm0 5.2q-5.3 0-8.3 4.9-2.9 4.8-2.9 13.4 0 8.5 2.9 13.3 3 4.8 8.3 4.8 5.3 0 8.2-4.8 3-4.8 3-13.3 0-8.6-3-13.4-2.9-4.9-8.2-4.9zm49.4 31.9v-36.1h5.5v44.7h-6.7l-17.6-35.8v35.8h-5.6v-44.7h6.5l17.8 36.1zm46-36.1v5.2h-13.4v39.5h-5.9v-39.5h-13.5v-5.2z"/>
	<path id="()" class="s1" aria-label="()"  d="m386.1 14.8h6.1q-5.1 8.8-7.6 17.3-2.5 8.6-2.5 17.4 0 8.8 2.5 17.5 2.5 8.6 7.6 17.3h-6.1q-5.7-9-8.6-17.6-2.8-8.7-2.8-17.2 0-8.5 2.8-17.1 2.8-8.6 8.6-17.6zm19.1 0h6.1q5.8 9 8.6 17.6 2.8 8.6 2.8 17.1 0 8.5-2.8 17.2-2.8 8.6-8.6 17.6h-6.1q5.1-8.7 7.6-17.3 2.5-8.7 2.5-17.5 0-8.8-2.5-17.4-2.5-8.5-7.6-17.3z"/>
</svg>